<svg xmlns="http://www.w3.org/2000/svg" width="2000" height="2000">
   <style type="text/css">
      .curve-path {
         fill             : none;
         stroke           : rgb(181, 188, 255);
         paint-order      : fill stroke markers;
         stroke-linecap   : round;
         stroke-linejoin  : round;
         stroke-miterlimit: 10;
         stroke-dasharray : 1003;
         animation        : loop 15s ease-in-out infinite;
      }
      @keyframes loop {
         50% {
            stroke-dashoffset: -1000;
         }
      }
      
      .wd-1 { stroke-width: 1.2; }
      .wd-2 { stroke-width: 2; }
      .wd-3 { stroke-width: 3; }
      @media screen and (max-width: 768px) 
      {
         .wd-1 { stroke-width: 2; }
         .wd-2 { stroke-width: 4; }
         .wd-3 { stroke-width: 6; }
      }
   </style>
    <g transform="scale(2)">
        <path class="curve-path wd-3"
            stroke-opacity="1"
            d ="M28.786 496.884h0l16.33 2.184 43.694 6.215 12.693.908 11.717.184 11.23-.47 11.716-1.158 12.693-1.928 16.355-3.198 30.757-6.123 11.961-1.612 10.496-.76 9.764-.053 9.52.608 9.52 1.263 10.009 1.992 11.228 2.922 14.89 4.63 25.875 8.109 10.497 2.5 8.787 1.424 7.812.625 7.323-.043 7.079-.677 7.079-1.337 7.079-2.017 7.323-2.802 7.81-3.769 8.3-4.829 9.276-6.287 11.229-8.613 15.867-13.285 20.992-17.46 10.985-8.076 9.032-5.678 7.81-4.031 7.08-2.848 6.59-1.901 6.103-1.082 6.103-.408 5.858.249 6.103.92 6.346 1.658 6.591 2.442 7.08 3.387 7.81 4.56 9.032 6.185 11.229 8.72 17.575 14.823 18.064 14.924 11.228 8.266 9.52 6.051 8.544 4.53 7.811 3.32 7.323 2.367 7.08 1.593 7.078.924 7.323.283 7.567-.373 8.056-1.058 9.032-1.863 10.984-2.99 17.087-5.472 19.528-6.075 11.717-2.93 10.253-1.885 9.764-1.116 9.52-.422 9.764.233 10.252.902 11.717 1.708 15.378 2.967 33.442 6.646 12.938 1.754 11.717.922 11.228.234 11.717-.417 12.694-1.12 15.622-2.072 40.277-5.896"
         />
        <!-- <path class="curve-path wd-3"
            stroke-opacity="1" filter="blur(20px)"
            d ="M28.786 496.884h0l16.33 2.184 43.694 6.215 12.693.908 11.717.184 11.23-.47 11.716-1.158 12.693-1.928 16.355-3.198 30.757-6.123 11.961-1.612 10.496-.76 9.764-.053 9.52.608 9.52 1.263 10.009 1.992 11.228 2.922 14.89 4.63 25.875 8.109 10.497 2.5 8.787 1.424 7.812.625 7.323-.043 7.079-.677 7.079-1.337 7.079-2.017 7.323-2.802 7.81-3.769 8.3-4.829 9.276-6.287 11.229-8.613 15.867-13.285 20.992-17.46 10.985-8.076 9.032-5.678 7.81-4.031 7.08-2.848 6.59-1.901 6.103-1.082 6.103-.408 5.858.249 6.103.92 6.346 1.658 6.591 2.442 7.08 3.387 7.81 4.56 9.032 6.185 11.229 8.72 17.575 14.823 18.064 14.924 11.228 8.266 9.52 6.051 8.544 4.53 7.811 3.32 7.323 2.367 7.08 1.593 7.078.924 7.323.283 7.567-.373 8.056-1.058 9.032-1.863 10.984-2.99 17.087-5.472 19.528-6.075 11.717-2.93 10.253-1.885 9.764-1.116 9.52-.422 9.764.233 10.252.902 11.717 1.708 15.378 2.967 33.442 6.646 12.938 1.754 11.717.922 11.228.234 11.717-.417 12.694-1.12 15.622-2.072 40.277-5.896"
         /> -->
    </g>
    <g transform="scale(2)">
        <path class="curve-path  wd-2"
            stroke-opacity="0.8"
            d ="M107.325 493.819h0l8.277.705 8.789 1.415 10.498 2.396 33.935 8.336 8.3.985 7.57.236 7.323-.425 7.569-1.108 8.056-1.859 9.766-2.98 31.494-10.207 7.568-1.372 6.836-.556 6.348.136 6.348.79 6.591 1.504 7.08 2.324 8.301 3.493 11.963 5.91 14.893 7.223 7.812 2.98 6.348 1.706 5.615.846 5.371.146 5.127-.511 5.127-1.173 5.371-1.942 5.615-2.787 6.348-4.015 7.324-5.613 9.033-7.983L419.8 468.85l6.836-4.842 5.86-3.243 5.126-2.026 4.639-1.108 4.394-.376 4.395.306 4.394.996 4.395 1.684 4.883 2.654 5.37 3.82 5.86 5.142 6.348 6.55 7.568 8.822 11.963 15.115 11.963 14.808 7.324 8.082 6.348 6.025 5.86 4.563 5.37 3.226 4.883 2.08 4.394 1.15 4.395.458 4.395-.225 4.394-.89 4.639-1.622 5.127-2.543 5.859-3.757 7.08-5.522 9.033-8.1 22.95-21.081 7.568-5.684 6.592-4.011 5.859-2.72 5.371-1.743 5.127-.983 5.178-.326 5.32.33 5.615 1.018 6.104 1.787 7.324 2.89 10.01 4.79 20.263 9.86 8.057 3.024 7.08 1.93 6.592 1.095 6.347.387 6.348-.257 6.836-.94 7.568-1.727 9.277-2.834 31.739-10.306 8.056-1.554 7.569-.783 7.324-.1 7.568.552 8.3 1.282 10.01 2.257 35.4 8.657 8.79 1.064 3.662.231"
         />
    </g>
    <g transform="scale(2)">
        <path class="curve-path wd-1"
            stroke-opacity="0.6"
            d ="M185.865 499.008h0l17.307-7.115 8.055-2.52 6.835-1.438 6.103-.626 5.858.044 5.859.7 6.102 1.417 6.347 2.17 7.323 3.26 9.276 4.97 23.434 12.937 7.079 2.847 5.858 1.638 5.37.822 5.126.117 4.882-.53 5.127-1.243 5.126-1.936 5.614-2.876 6.347-4.105 7.567-5.858 10.496-9.207 15.623-13.674 7.323-5.371 6.102-3.559 5.127-2.188 4.637-1.264 4.394-.518 4.15.146 4.15.78 4.394 1.518 4.638 2.36 5.126 3.471 5.858 4.985 6.103 6.186 7.323 8.455 10.984 13.837 12.205 15.132 7.08 7.757 5.858 5.47 5.37 4.07 5.126 2.923 4.394 1.69 4.15.87 3.905.161 3.906-.481 4.15-1.206 4.394-2.03 4.882-3.115 5.614-4.595 5.858-5.786 6.835-7.745 9.52-11.866 15.135-18.864 7.079-7.76 6.102-5.723 5.614-4.293 5.127-3.003 4.638-1.912 4.393-1.083 4.15-.37 4.15.257 4.394.927 4.638 1.667 5.126 2.588 6.102 3.958 7.567 5.927 11.23 9.942 13.669 11.935 7.811 5.81 6.59 3.97 5.86 2.667 5.37 1.668 5.126.874 4.882.183 5.126-.465 5.37-1.158 5.859-1.956 6.834-3.029 9.032-4.845 23.434-12.953 7.567-3.121 6.59-1.965 6.103-1.112 5.859-.398 5.858.251 6.103.91 6.835 1.712 8.055 2.762 11.473 4.756 3.173 1.375"
         />
    </g>
</svg>
