	
<svg version="1.1" xmlns="http://www.w3.org/2000/svg" xmlns:xlink="http://www.w3.org/1999/xlink" width="2000" height="2000" >
   <link xmlns="http://www.w3.org/1999/xhtml" rel="stylesheet" href="css/style.css" type="text/css"/>
<defs/>
   <g transform="scale(2,2)"><g id="background-8994a90c"><rect fill="rgba(0,0,0,0)" stroke="none" x="0" y="0" width="1000" height="1000" class="dcg-svg-background"/></g><g id="background-images-8994a90c"/><g id="graphpaper-8994a90c"><g id="axis-8994a90c"><g><g><path fill="none" stroke="rgb(253, 237, 218)" class="dcg-svg-tickmark" paint-order="fill stroke markers" d="" stroke-opacity="0.9" stroke-miterlimit="2" stroke-width="1.5" stroke-dasharray=""/></g></g></g></g><g id="expressions-8994a90c"><g id="sketch-8994a90c"><title>Expression 2</title><path fill="rgb(161, 169, 255)" stroke="none" paint-order="stroke fill markers" d="" fill-opacity="0.4"/><g><path fill="none" stroke="rgb(161, 169, 255)" class="dcg-svg-curve" paint-order="fill stroke markers" d=" M 28.785516024031033 496.8844756686832 L 28.785516024031033 496.8844756686832 L 45.11593551168769 499.06811417790067 L 88.81019230986738 505.2830817613458 L 101.50349596073522 506.1911066592778 L 113.2203916384594 506.3750495792113 L 124.44908332961174 505.9041680077597 L 136.16597900733592 504.7465691925896 L 148.8592826582038 502.81941848649694 L 165.21411620836042 499.62101596126746 L 195.97096736238635 493.49808596445337 L 207.93196503339644 491.88550398388185 L 218.4283507446911 491.12526687393165 L 228.19243047612784 491.073358627579 L 237.7124082142787 491.68108631386673 L 247.23238595242964 492.9443220020505 L 257.2405676771524 494.93600598810474 L 268.4692593683047 497.85826257796674 L 283.3594809587458 502.4873675534195 L 309.2342922470533 510.59658924494533 L 319.7306779583479 513.0965200153837 L 328.518349716641 514.520991974702 L 336.32961350179056 515.1464681905363 L 343.65267330036806 515.1029249686967 L 350.73163110565974 514.4262023134164 L 357.8105889109515 513.0890565421857 L 364.88954671624316 511.0723842769008 L 372.2126065148207 508.27015996711697 L 380.0238702999702 504.5013650234089 L 388.32333807169147 499.6721428692087 L 397.59921381655647 493.38527608455786 L 408.8279055077088 484.77215310910424 L 424.6945350712936 471.4874647935891 L 445.6873064938828 454.0278639068167 L 456.6718961917491 445.9509991230964 L 465.70366994332824 440.27334668560366 L 473.5149337284777 436.24187955401044 L 480.5938915337694 433.3941122799621 L 487.1846453524892 431.49254597964455 L 493.2871951846371 430.41143734859736 L 499.3897450167852 430.0034062708752 L 505.2481928556473 430.2516595995402 L 511.3507426877953 431.17251320088417 L 517.6973945132291 432.8297494255446 L 524.2881483319491 435.27233857989756 L 531.3671061372407 438.65857599572587 L 539.1783699223902 443.2186694650992 L 548.2101436739692 449.4039077078768 L 559.4388353651216 458.1236372346227 L 577.0141788817078 472.94718156356237 L 595.0777263848659 487.8714660980256 L 606.3064180760183 496.13698999639155 L 615.8263958141692 502.1880159408017 L 624.3699655791763 506.71805092522726 L 632.1812293643258 510.03824550148937 L 639.5042891629034 512.4045653201974 L 646.5832469681951 513.9981710025615 L 653.6622047734868 514.9220444667576 L 660.9852645720645 515.2048288580495 L 668.5524263639279 514.8318088006005 L 676.6077921423632 513.7743587096688 L 685.6395658939423 511.91062000628546 L 696.6241555918086 508.9211932628727 L 713.7112951218231 503.448832903846 L 733.2394545846969 497.3739462587493 L 744.956350262421 494.44460292422104 L 755.2086339804296 492.5592931667844 L 764.9727137118664 491.44273021572565 L 774.4926914500173 491.0207992153362 L 784.2567711814542 491.25376379333215 L 794.5090548994629 492.1560737524994 L 806.225950577187 493.8641858485088 L 821.6043761542 496.83128968119564 L 855.046349234371 503.4774119429519 L 867.9837548785248 505.2308885097075 L 879.7006505562489 506.15284619671826 L 890.9293422474011 506.38716775640023 L 902.6462379251253 505.9696527528101 L 915.3395415759933 504.84967208115455 L 930.9620691462922 502.77824676521857 L 971.238898038469 496.88170238737126" stroke-linecap="round" stroke-linejoin="round" stroke-miterlimit="10" stroke-width="3" stroke-opacity="0.9" stroke-dasharray=""/></g></g><g id="sketch-8994a90c"><title>Expression 3</title><path fill="rgb(161, 169, 255)" stroke="none" paint-order="stroke fill markers" d="" fill-opacity="0.4"/><g><path fill="none" stroke="rgb(161, 169, 255)" class="dcg-svg-curve" paint-order="fill stroke markers" d=" M 107.32533236377586 493.8187072740528 L 107.32533236377586 493.8187072740528 L 115.60167601203534 494.5240832613019 L 124.39071358813365 495.9386736867846 L 134.88873069291762 498.3354381082724 L 168.8241813339638 506.67105581266316 L 177.12493904472325 507.65617734405896 L 184.6932769574745 507.89201669980696 L 192.01747493755644 507.46743310040705 L 199.58581285030772 506.35854398147774 L 207.6424306283978 504.5003126522794 L 217.40802793517364 501.5208120689797 L 248.9020792495258 491.3128313873686 L 256.4704171622771 489.94050878606316 L 263.30633527702014 489.38474463468316 L 269.65397352642447 489.520628646381 L 276.0016117758288 490.31180026280293 L 282.5933899579025 491.81499284199515 L 289.673448005315 494.1390061712912 L 297.97420571607444 497.6316804846819 L 309.9370624168749 503.5411012482604 L 324.8295983097081 510.7653484562099 L 332.64207615512873 513.7443768137725 L 338.98971440453306 515.4507887178302 L 344.60493285592923 516.2965203628037 L 349.9760113746559 516.4432519972457 L 355.1029499607132 515.9318231731767 L 360.22988854677055 514.7590741579236 L 365.60096706549723 512.817275008957 L 371.2161855168934 510.0297232755909 L 377.56382376629773 506.0146464531183 L 384.8880217463796 500.40234378532375 L 393.92119925514726 492.4189106500525 L 419.80003211810333 468.8502669168297 L 426.63595023284637 464.0076881249032 L 432.49530861691187 460.76472267403335 L 437.6222472029692 458.73949767702027 L 442.26090592368774 457.63065231766666 L 446.6554247117369 457.2552268817865 L 451.049943499786 457.5607431871907 L 455.44446228783517 458.55719614815416 L 459.8389810758843 460.24068682896825 L 464.7217797292722 462.89482283415066 L 470.0928582479989 466.7146660585306 L 475.9522166320645 471.85703426348937 L 482.2998548814687 478.4069520201077 L 489.86819279422 487.2293892210655 L 501.83104949502047 502.343512145786 L 513.7939061958209 517.1524744764129 L 521.1181041759028 525.2339994145904 L 527.4657424253071 531.2590421448244 L 533.3251008093727 535.8215436502749 L 538.6961793280993 539.0481628855307 L 543.5789779814872 541.1276573331362 L 547.9734967695365 542.2776150382274 L 552.3680155575855 542.7362944060651 L 556.7625343456348 542.5106249783626 L 561.1570531336838 541.6211601037164 L 565.7957118544023 539.9994190101191 L 570.9226504404596 537.4557053150716 L 576.7820088245252 533.6985671600797 L 583.8620668719376 528.1770882893268 L 592.8952443807053 520.0763141057071 L 615.8443980516286 498.99571851932575 L 623.4127359643799 493.31216721455513 L 630.0045141464536 489.3006358996727 L 635.8638725305191 486.58147733675787 L 641.2349510492459 484.83775386303705 L 646.3618896353031 483.8552634151172 L 651.5400507799161 483.5291439253407 L 656.8599067400872 483.85868046121107 L 662.4751251914832 484.8768092969941 L 668.5786235082182 486.663693501112 L 675.9028214883001 489.55330890208415 L 685.9125587277454 494.34365062367317 L 706.1761731393052 504.2036311270108 L 714.2327909173954 507.22818563725235 L 721.3128489648079 509.1575018644316 L 727.9046271468816 510.2528689863591 L 734.2522653962859 510.63966381303254 L 740.5999036456901 510.38303473146806 L 747.4358217604333 509.44222673239494 L 755.0041596731846 507.71607218708175 L 764.2814771146217 504.8821522114098 L 796.0196683616432 494.57580987389133 L 804.0762861397333 493.0223790342902 L 811.6446240524845 492.23901712679685 L 818.9688220325663 492.13835493169285 L 826.5371599453177 492.69097533009807 L 834.8379176560773 493.9730763939217 L 844.8476548955224 496.22956543996014 L 880.247945132585 504.88711600370414 L 889.0369827086832 505.95085889632134 L 892.6990816987243 506.1824096153932" stroke-linecap="round" stroke-linejoin="round" stroke-miterlimit="10" stroke-width="2" stroke-opacity="0.9" stroke-dasharray=""/></g></g><g id="sketch-8994a90c"><title>Expression 4</title><path fill="rgb(161, 169, 255)" stroke="none" paint-order="stroke fill markers" d="" fill-opacity="0.4"/><g><path fill="none" stroke="rgb(161, 169, 255)" class="dcg-svg-curve" paint-order="fill stroke markers" d=" M 185.86514870352067 499.0078291505397 L 185.86514870352067 499.0078291505397 L 203.17197616432102 491.8930226791755 L 211.2273419427564 489.3732625805897 L 218.0621977547622 487.93519559621507 L 224.16474758691018 487.30947421956296 L 230.0231954257723 487.3531730597041 L 235.88164326463433 488.05272620690204 L 241.98419309678235 489.47015462142065 L 248.33084492221627 491.64003338328433 L 255.6539047207939 494.9007226155216 L 264.92978046565884 499.8704671501205 L 288.3635718211072 512.806981136639 L 295.4425296263989 515.6540639327416 L 301.300977465261 517.2916425541408 L 306.67122131755116 518.1141796753952 L 311.7973631765555 518.2307720574261 L 316.6794030422739 517.7007737949268 L 321.8055449012782 516.4579204916644 L 326.9316867602826 514.521610729242 L 332.5460326058587 511.6458981350534 L 338.89268443129265 507.5411016582426 L 346.4598462231562 501.68304122221593 L 356.9562319344508 492.4756538126071 L 372.5787595047496 478.8017664039751 L 379.9018193033273 473.43100244518234 L 386.0043691354753 469.8723678129618 L 391.1305109944796 467.68387565688545 L 395.7684488669121 466.41993016582296 L 400.1622847460586 465.9015978000947 L 404.3120186319193 466.0483142822543 L 408.46175251777987 466.8280824117371 L 412.85558839692646 468.34582732602973 L 417.493526269359 470.7055937060652 L 422.6196681283633 474.1773875094225 L 428.4781159672254 479.16185027556685 L 434.5806657993734 485.34778627987953 L 441.903725597951 493.8025139848053 L 452.88831529581745 507.64018033383184 L 465.0934149601135 522.7724429353622 L 472.17237276540504 530.5286794102842 L 478.03082060426715 535.9985369936269 L 483.40106445655744 540.0693219249171 L 488.5272063155617 542.991557454963 L 492.9210421947083 544.6816773518641 L 497.070776080569 545.5525782455197 L 500.97640797314364 545.7132354182022 L 504.88203986571835 545.2319360532883 L 509.03177375157907 544.026345497886 L 513.4256096307256 541.995442411523 L 518.307649496444 538.8808033420955 L 523.9219953420202 534.2858017035605 L 529.7804431808822 528.4998300298564 L 536.615298992888 520.7546005363708 L 546.135276731039 508.8892947913957 L 561.269600314766 490.0251364140795 L 568.3485581200576 482.2644687279318 L 574.4511079522057 476.541943804118 L 580.0654537977819 472.24939499244533 L 585.1915956567861 469.246068735148 L 589.8295335292186 467.33408486460667 L 594.2233694083652 466.25086614874476 L 598.3731032942259 465.8817445278462 L 602.5228371800865 466.1376781798474 L 606.9166730592331 467.06497301743036 L 611.5546109316656 468.73180117424283 L 616.6807527906699 471.32021821429976 L 622.7833026228178 475.27842463657225 L 630.3504644146815 481.20474686735145 L 641.5791561058337 491.14719619027056 L 655.2488677298452 503.0817092780266 L 663.0601315149946 508.8924644487616 L 669.6508853337145 512.861176330518 L 675.5093331725766 515.5285749520913 L 680.8795770248669 517.1965934168975 L 686.0057188838712 518.0708818894291 L 690.8877587495896 518.2539645086613 L 696.013900608594 517.7890267977947 L 701.3841444608842 516.631017523493 L 707.2425922997462 514.6749347838515 L 714.077448111752 511.64598120653596 L 723.1092218633311 506.80115148794755 L 746.5430132187795 493.84786750107537 L 754.1101750106429 490.7265121438055 L 760.7009288293627 488.76195211388193 L 766.8034786615108 487.6504244303219 L 772.6619265003728 487.2524597387767 L 778.520374339235 487.503197430624 L 784.6229241713829 488.41308863805233 L 791.4577799833887 490.1252192104208 L 799.513145761824 492.8873836890441 L 810.9859394462625 497.6434149780565 L 814.1592653589793 499.0183855387583" stroke-linecap="round" stroke-linejoin="round" stroke-miterlimit="10" stroke-opacity="0.9" stroke-dasharray=""/></g></g></g><g id="labels-8994a90c"/></g>
</svg>