<?xml version="1.0" standalone="no"?>
<!DOCTYPE svg PUBLIC "-//W3C//DTD SVG 20010904//EN"
 "http://www.w3.org/TR/2001/REC-SVG-20010904/DTD/svg10.dtd">
<svg version="1.0" xmlns="http://www.w3.org/2000/svg"
 width="500.000000pt" height="500.000000pt" viewBox="0 0 500.000000 500.000000"
 preserveAspectRatio="xMidYMid meet">
<metadata>
Created by potrace 1.14, written by Peter Selinger 2001-2017
</metadata>
<g transform="translate(0.000000,500.000000) scale(0.100000,-0.100000)"
fill="#000000" stroke="none">
<path d="M2350 4089 c-381 -45 -767 -253 -1270 -686 -14 -11 -61 -51 -105 -88
-44 -37 -92 -77 -106 -90 -25 -23 -27 -24 -75 -9 -69 22 -222 22 -309 0 -91
-23 -248 -98 -274 -132 -41 -52 -18 -123 45 -144 31 -11 41 -8 107 25 96 50
166 73 241 81 l61 7 -45 -37 c-138 -112 -396 -296 -415 -296 -12 0 -111 -73
-133 -98 -41 -47 -64 -103 -67 -163 -13 -202 184 -354 371 -286 37 14 213 118
289 172 47 34 269 199 275 205 3 3 56 47 118 99 l113 93 22 -24 c60 -62 173
-199 314 -378 227 -288 326 -405 432 -509 347 -339 652 -373 995 -113 l39 29
51 -38 c70 -54 186 -113 276 -140 116 -36 298 -33 423 5 74 23 220 100 305
160 110 77 339 278 518 454 10 10 23 8 66 -9 98 -39 217 -19 294 48 28 25 74
99 82 132 16 64 7 148 -22 205 -32 63 -57 85 -196 171 -101 62 -386 271 -410
300 -13 16 -11 17 35 11 82 -11 125 -25 223 -72 86 -42 95 -44 127 -34 63 21
86 91 46 142 -39 49 -194 117 -321 142 -58 11 -170 13 -210 3 -8 -2 -36 -7
-62 -11 -46 -8 -49 -7 -105 40 -32 27 -60 51 -63 54 -15 17 -261 218 -355 291
-342 266 -618 408 -912 470 -107 23 -304 31 -413 18z m323 -574 c175 -40 365
-139 592 -309 172 -129 417 -335 413 -347 -2 -4 -31 -38 -65 -76 -54 -60 -132
-155 -225 -274 -106 -135 -272 -341 -302 -374 l-35 -40 -63 65 c-96 100 -223
253 -407 489 -45 59 -249 309 -268 329 -117 124 -234 236 -306 290 l-88 66 48
30 c73 45 219 111 300 135 137 41 273 46 406 16z m-959 -429 c78 -41 185 -127
282 -227 81 -85 250 -286 369 -439 64 -83 58 -75 166 -210 110 -136 141 -173
226 -262 34 -37 63 -71 63 -75 0 -15 -123 -89 -185 -112 -138 -52 -276 -25
-423 83 -138 102 -277 254 -537 586 -144 184 -260 325 -317 385 -21 22 -38 44
-37 50 0 5 50 51 111 100 60 50 127 105 147 122 20 18 44 33 53 33 9 0 46 -15
82 -34z m2146 -369 c24 -21 118 -100 191 -160 19 -15 80 -62 137 -105 l103
-77 -49 -45 c-122 -111 -237 -216 -254 -233 -10 -9 -54 -44 -98 -76 -257 -191
-429 -215 -636 -89 -30 18 -54 36 -54 40 0 4 18 28 41 55 64 75 68 79 189 233
63 80 117 147 120 150 3 3 24 30 47 60 23 30 54 69 68 85 116 136 160 185 164
185 4 0 17 -10 31 -23z"/>
</g>
</svg>
